<mxfile host="65bd71144e">
    <diagram id="JEVn3mSV0aVD-ZGOuX2a" name="Architecture">
        <mxGraphModel dx="1195" dy="769" grid="1" gridSize="10" guides="1" tooltips="1" connect="1" arrows="1" fold="1" page="1" pageScale="1" pageWidth="850" pageHeight="1100" math="0" shadow="0">
            <root>
                <mxCell id="0"/>
                <mxCell id="1" parent="0"/>
                <mxCell id="PXCvFyWKQt7oEatczfwv-112" value="" style="rounded=0;whiteSpace=wrap;html=1;shadow=1;sketch=0;fillStyle=auto;fontFamily=Source Code Pro;fontSource=https%3A%2F%2Ffonts.googleapis.com%2Fcss%3Ffamily%3DSource%2BCode%2BPro;" parent="1" vertex="1">
                    <mxGeometry x="50" y="500" width="900" height="470" as="geometry"/>
                </mxCell>
                <mxCell id="PXCvFyWKQt7oEatczfwv-34" value="" style="rounded=1;whiteSpace=wrap;html=1;fontFamily=Source Code Pro;fontSource=https%3A%2F%2Ffonts.googleapis.com%2Fcss%3Ffamily%3DSource%2BCode%2BPro;fillColor=#FFFFFF;" parent="1" vertex="1">
                    <mxGeometry x="900" y="140" width="230" height="130" as="geometry"/>
                </mxCell>
                <mxCell id="PXCvFyWKQt7oEatczfwv-35" value="" style="rounded=1;whiteSpace=wrap;html=1;fontFamily=Source Code Pro;fontSource=https%3A%2F%2Ffonts.googleapis.com%2Fcss%3Ffamily%3DSource%2BCode%2BPro;fillColor=#D9D9D9;fillStyle=zigzag-line;shadow=1;" parent="1" vertex="1">
                    <mxGeometry x="910" y="150" width="120" height="80" as="geometry"/>
                </mxCell>
                <mxCell id="PXCvFyWKQt7oEatczfwv-36" value="" style="rounded=1;whiteSpace=wrap;html=1;fontFamily=Source Code Pro;fontSource=https%3A%2F%2Ffonts.googleapis.com%2Fcss%3Ffamily%3DSource%2BCode%2BPro;fillColor=#8F8F8F;fillStyle=cross-hatch;shadow=0;" parent="1" vertex="1">
                    <mxGeometry x="1040" y="150" width="80" height="80" as="geometry"/>
                </mxCell>
                <mxCell id="PXCvFyWKQt7oEatczfwv-37" value="" style="rounded=1;whiteSpace=wrap;html=1;fontFamily=Source Code Pro;fontSource=https%3A%2F%2Ffonts.googleapis.com%2Fcss%3Ffamily%3DSource%2BCode%2BPro;fillColor=#8F8F8F;fillStyle=cross-hatch;" parent="1" vertex="1">
                    <mxGeometry x="910" y="240" width="120" height="20" as="geometry"/>
                </mxCell>
                <mxCell id="PXCvFyWKQt7oEatczfwv-38" value="" style="ellipse;whiteSpace=wrap;html=1;aspect=fixed;fillStyle=auto;fontFamily=Source Code Pro;fontSource=https%3A%2F%2Ffonts.googleapis.com%2Fcss%3Ffamily%3DSource%2BCode%2BPro;fillColor=#D9D9D9;" parent="1" vertex="1">
                    <mxGeometry x="1038" y="239" width="20" height="20" as="geometry"/>
                </mxCell>
                <mxCell id="PXCvFyWKQt7oEatczfwv-39" value="" style="ellipse;whiteSpace=wrap;html=1;aspect=fixed;fillStyle=auto;fontFamily=Source Code Pro;fontSource=https%3A%2F%2Ffonts.googleapis.com%2Fcss%3Ffamily%3DSource%2BCode%2BPro;fillColor=#D9D9D9;" parent="1" vertex="1">
                    <mxGeometry x="1058" y="239" width="20" height="20" as="geometry"/>
                </mxCell>
                <mxCell id="PXCvFyWKQt7oEatczfwv-40" value="" style="ellipse;whiteSpace=wrap;html=1;aspect=fixed;fillStyle=auto;fontFamily=Source Code Pro;fontSource=https%3A%2F%2Ffonts.googleapis.com%2Fcss%3Ffamily%3DSource%2BCode%2BPro;fillColor=#D9D9D9;" parent="1" vertex="1">
                    <mxGeometry x="1078" y="239" width="20" height="20" as="geometry"/>
                </mxCell>
                <mxCell id="PXCvFyWKQt7oEatczfwv-41" value="" style="ellipse;whiteSpace=wrap;html=1;aspect=fixed;fillStyle=auto;fontFamily=Source Code Pro;fontSource=https%3A%2F%2Ffonts.googleapis.com%2Fcss%3Ffamily%3DSource%2BCode%2BPro;fillColor=#D9D9D9;" parent="1" vertex="1">
                    <mxGeometry x="1098" y="239" width="20" height="20" as="geometry"/>
                </mxCell>
                <mxCell id="PXCvFyWKQt7oEatczfwv-12" value="Firmware" style="rounded=0;whiteSpace=wrap;html=1;dashed=1;align=left;verticalAlign=top;fontFamily=Source Code Pro;fontSource=https%3A%2F%2Ffonts.googleapis.com%2Fcss%3Ffamily%3DSource%2BCode%2BPro;fontStyle=1" parent="1" vertex="1">
                    <mxGeometry x="40" y="40" width="560" height="270" as="geometry"/>
                </mxCell>
                <mxCell id="PXCvFyWKQt7oEatczfwv-4" value="Timer 2" style="rounded=0;whiteSpace=wrap;html=1;verticalAlign=top;fontStyle=1;fontFamily=Source Code Pro;fontSource=https%3A%2F%2Ffonts.googleapis.com%2Fcss%3Ffamily%3DSource%2BCode%2BPro;" parent="1" vertex="1">
                    <mxGeometry x="420" y="160" width="160" height="130" as="geometry"/>
                </mxCell>
                <mxCell id="PXCvFyWKQt7oEatczfwv-42" style="edgeStyle=orthogonalEdgeStyle;curved=1;html=1;exitX=1;exitY=0.5;exitDx=0;exitDy=0;entryX=0;entryY=0.5;entryDx=0;entryDy=0;fontFamily=Source Code Pro;fontSource=https%3A%2F%2Ffonts.googleapis.com%2Fcss%3Ffamily%3DSource%2BCode%2BPro;" parent="1" source="PXCvFyWKQt7oEatczfwv-1" target="PXCvFyWKQt7oEatczfwv-13" edge="1">
                    <mxGeometry relative="1" as="geometry"/>
                </mxCell>
                <mxCell id="PXCvFyWKQt7oEatczfwv-1" value="PWM Channel 1" style="rounded=0;whiteSpace=wrap;html=1;fontFamily=Source Code Pro;fontSource=https%3A%2F%2Ffonts.googleapis.com%2Fcss%3Ffamily%3DSource%2BCode%2BPro;" parent="1" vertex="1">
                    <mxGeometry x="440" y="190" width="120" height="40" as="geometry"/>
                </mxCell>
                <mxCell id="PXCvFyWKQt7oEatczfwv-43" style="edgeStyle=orthogonalEdgeStyle;curved=1;html=1;exitX=1;exitY=0.5;exitDx=0;exitDy=0;entryX=0;entryY=0.5;entryDx=0;entryDy=0;fontFamily=Source Code Pro;fontSource=https%3A%2F%2Ffonts.googleapis.com%2Fcss%3Ffamily%3DSource%2BCode%2BPro;" parent="1" source="PXCvFyWKQt7oEatczfwv-2" target="PXCvFyWKQt7oEatczfwv-26" edge="1">
                    <mxGeometry relative="1" as="geometry"/>
                </mxCell>
                <mxCell id="PXCvFyWKQt7oEatczfwv-2" value="PWM Channel 2" style="rounded=0;whiteSpace=wrap;html=1;fontFamily=Source Code Pro;fontSource=https%3A%2F%2Ffonts.googleapis.com%2Fcss%3Ffamily%3DSource%2BCode%2BPro;" parent="1" vertex="1">
                    <mxGeometry x="440" y="230" width="120" height="40" as="geometry"/>
                </mxCell>
                <mxCell id="PXCvFyWKQt7oEatczfwv-6" value="Timer 3" style="rounded=0;whiteSpace=wrap;html=1;verticalAlign=top;fontStyle=1;fontFamily=Source Code Pro;fontSource=https%3A%2F%2Ffonts.googleapis.com%2Fcss%3Ffamily%3DSource%2BCode%2BPro;" parent="1" vertex="1">
                    <mxGeometry x="60" y="160" width="160" height="130" as="geometry"/>
                </mxCell>
                <mxCell id="PXCvFyWKQt7oEatczfwv-9" style="edgeStyle=none;html=1;exitX=1;exitY=0.5;exitDx=0;exitDy=0;entryX=0;entryY=0.5;entryDx=0;entryDy=0;fontFamily=Source Code Pro;fontSource=https%3A%2F%2Ffonts.googleapis.com%2Fcss%3Ffamily%3DSource%2BCode%2BPro;" parent="1" source="PXCvFyWKQt7oEatczfwv-7" target="PXCvFyWKQt7oEatczfwv-8" edge="1">
                    <mxGeometry relative="1" as="geometry"/>
                </mxCell>
                <mxCell id="PXCvFyWKQt7oEatczfwv-7" value="Interrupt" style="rounded=0;whiteSpace=wrap;html=1;fontFamily=Source Code Pro;fontSource=https%3A%2F%2Ffonts.googleapis.com%2Fcss%3Ffamily%3DSource%2BCode%2BPro;" parent="1" vertex="1">
                    <mxGeometry x="80" y="190" width="120" height="40" as="geometry"/>
                </mxCell>
                <mxCell id="PXCvFyWKQt7oEatczfwv-10" style="edgeStyle=none;html=1;exitX=1;exitY=0.5;exitDx=0;exitDy=0;entryX=0;entryY=0.5;entryDx=0;entryDy=0;fontFamily=Source Code Pro;fontSource=https%3A%2F%2Ffonts.googleapis.com%2Fcss%3Ffamily%3DSource%2BCode%2BPro;" parent="1" source="PXCvFyWKQt7oEatczfwv-8" target="PXCvFyWKQt7oEatczfwv-1" edge="1">
                    <mxGeometry relative="1" as="geometry"/>
                </mxCell>
                <mxCell id="PXCvFyWKQt7oEatczfwv-11" style="edgeStyle=orthogonalEdgeStyle;html=1;exitX=1;exitY=0.5;exitDx=0;exitDy=0;entryX=0;entryY=0.5;entryDx=0;entryDy=0;curved=1;fontFamily=Source Code Pro;fontSource=https%3A%2F%2Ffonts.googleapis.com%2Fcss%3Ffamily%3DSource%2BCode%2BPro;" parent="1" source="PXCvFyWKQt7oEatczfwv-8" target="PXCvFyWKQt7oEatczfwv-2" edge="1">
                    <mxGeometry relative="1" as="geometry"/>
                </mxCell>
                <mxCell id="PXCvFyWKQt7oEatczfwv-8" value="Update duty cycles according to X and Y arrays" style="shape=process;whiteSpace=wrap;html=1;backgroundOutline=1;fontFamily=Source Code Pro;fontSource=https%3A%2F%2Ffonts.googleapis.com%2Fcss%3Ffamily%3DSource%2BCode%2BPro;" parent="1" vertex="1">
                    <mxGeometry x="260" y="160" width="120" height="100" as="geometry"/>
                </mxCell>
                <mxCell id="PXCvFyWKQt7oEatczfwv-44" style="edgeStyle=orthogonalEdgeStyle;curved=1;html=1;exitX=1;exitY=0.5;exitDx=0;exitDy=0;entryX=0.5;entryY=1;entryDx=0;entryDy=0;fontFamily=Source Code Pro;fontSource=https%3A%2F%2Ffonts.googleapis.com%2Fcss%3Ffamily%3DSource%2BCode%2BPro;" parent="1" source="PXCvFyWKQt7oEatczfwv-13" target="PXCvFyWKQt7oEatczfwv-38" edge="1">
                    <mxGeometry relative="1" as="geometry">
                        <Array as="points">
                            <mxPoint x="870" y="110"/>
                            <mxPoint x="870" y="320"/>
                            <mxPoint x="1048" y="320"/>
                        </Array>
                    </mxGeometry>
                </mxCell>
                <mxCell id="PXCvFyWKQt7oEatczfwv-13" value="Low-pass Filter" style="rounded=0;whiteSpace=wrap;html=1;dashed=1;align=left;verticalAlign=top;fontFamily=Source Code Pro;fontSource=https%3A%2F%2Ffonts.googleapis.com%2Fcss%3Ffamily%3DSource%2BCode%2BPro;fontStyle=1;movable=1;resizable=1;rotatable=1;deletable=1;editable=1;connectable=1;" parent="1" vertex="1">
                    <mxGeometry x="680" y="40" width="140" height="140" as="geometry"/>
                </mxCell>
                <mxCell id="PXCvFyWKQt7oEatczfwv-14" value="" style="pointerEvents=1;verticalLabelPosition=bottom;shadow=0;dashed=0;align=center;html=1;verticalAlign=top;shape=mxgraph.electrical.resistors.resistor_2;fontFamily=Source Code Pro;fontSource=https%3A%2F%2Ffonts.googleapis.com%2Fcss%3Ffamily%3DSource%2BCode%2BPro;" parent="1" vertex="1">
                    <mxGeometry x="700" y="80" width="50" height="10" as="geometry"/>
                </mxCell>
                <mxCell id="PXCvFyWKQt7oEatczfwv-15" value="" style="pointerEvents=1;verticalLabelPosition=bottom;shadow=0;dashed=0;align=center;html=1;verticalAlign=top;shape=mxgraph.electrical.capacitors.capacitor_1;fontFamily=Source Code Pro;fontSource=https%3A%2F%2Ffonts.googleapis.com%2Fcss%3Ffamily%3DSource%2BCode%2BPro;rotation=90;" parent="1" vertex="1">
                    <mxGeometry x="720" y="99" width="60" height="30" as="geometry"/>
                </mxCell>
                <mxCell id="PXCvFyWKQt7oEatczfwv-16" value="" style="pointerEvents=1;verticalLabelPosition=bottom;shadow=0;dashed=0;align=center;html=1;verticalAlign=top;shape=mxgraph.electrical.signal_sources.signal_ground;fontFamily=Source Code Pro;fontSource=https%3A%2F%2Ffonts.googleapis.com%2Fcss%3Ffamily%3DSource%2BCode%2BPro;" parent="1" vertex="1">
                    <mxGeometry x="735" y="140" width="30" height="20" as="geometry"/>
                </mxCell>
                <mxCell id="PXCvFyWKQt7oEatczfwv-17" value="" style="endArrow=none;html=1;fontFamily=Source Code Pro;fontSource=https%3A%2F%2Ffonts.googleapis.com%2Fcss%3Ffamily%3DSource%2BCode%2BPro;curved=1;exitX=0;exitY=0.5;exitDx=0;exitDy=0;exitPerimeter=0;" parent="1" edge="1">
                    <mxGeometry width="50" height="50" relative="1" as="geometry">
                        <mxPoint x="750" y="85" as="sourcePoint"/>
                        <mxPoint x="790" y="85" as="targetPoint"/>
                    </mxGeometry>
                </mxCell>
                <mxCell id="PXCvFyWKQt7oEatczfwv-20" value="" style="ellipse;whiteSpace=wrap;html=1;aspect=fixed;dashed=1;fontFamily=Source Code Pro;fontSource=https%3A%2F%2Ffonts.googleapis.com%2Fcss%3Ffamily%3DSource%2BCode%2BPro;fillColor=#000000;strokeColor=none;" parent="1" vertex="1">
                    <mxGeometry x="696" y="82" width="6" height="6" as="geometry"/>
                </mxCell>
                <mxCell id="PXCvFyWKQt7oEatczfwv-24" value="" style="ellipse;whiteSpace=wrap;html=1;aspect=fixed;dashed=1;fontFamily=Source Code Pro;fontSource=https%3A%2F%2Ffonts.googleapis.com%2Fcss%3Ffamily%3DSource%2BCode%2BPro;fillColor=#000000;strokeColor=none;" parent="1" vertex="1">
                    <mxGeometry x="747" y="82" width="6" height="6" as="geometry"/>
                </mxCell>
                <mxCell id="PXCvFyWKQt7oEatczfwv-25" value="" style="ellipse;whiteSpace=wrap;html=1;aspect=fixed;dashed=1;fontFamily=Source Code Pro;fontSource=https%3A%2F%2Ffonts.googleapis.com%2Fcss%3Ffamily%3DSource%2BCode%2BPro;fillColor=#000000;strokeColor=none;" parent="1" vertex="1">
                    <mxGeometry x="790" y="82" width="6" height="6" as="geometry"/>
                </mxCell>
                <mxCell id="PXCvFyWKQt7oEatczfwv-45" style="edgeStyle=orthogonalEdgeStyle;curved=1;html=1;exitX=1;exitY=0.5;exitDx=0;exitDy=0;entryX=0.5;entryY=1;entryDx=0;entryDy=0;fontFamily=Source Code Pro;fontSource=https%3A%2F%2Ffonts.googleapis.com%2Fcss%3Ffamily%3DSource%2BCode%2BPro;" parent="1" source="PXCvFyWKQt7oEatczfwv-26" target="PXCvFyWKQt7oEatczfwv-39" edge="1">
                    <mxGeometry relative="1" as="geometry">
                        <Array as="points">
                            <mxPoint x="1068" y="350"/>
                        </Array>
                    </mxGeometry>
                </mxCell>
                <mxCell id="PXCvFyWKQt7oEatczfwv-26" value="Low-pass Filter" style="rounded=0;whiteSpace=wrap;html=1;dashed=1;align=left;verticalAlign=top;fontFamily=Source Code Pro;fontSource=https%3A%2F%2Ffonts.googleapis.com%2Fcss%3Ffamily%3DSource%2BCode%2BPro;fontStyle=1;movable=1;resizable=1;rotatable=1;deletable=1;editable=1;connectable=1;" parent="1" vertex="1">
                    <mxGeometry x="680" y="280" width="140" height="140" as="geometry"/>
                </mxCell>
                <mxCell id="PXCvFyWKQt7oEatczfwv-27" value="" style="pointerEvents=1;verticalLabelPosition=bottom;shadow=0;dashed=0;align=center;html=1;verticalAlign=top;shape=mxgraph.electrical.resistors.resistor_2;fontFamily=Source Code Pro;fontSource=https%3A%2F%2Ffonts.googleapis.com%2Fcss%3Ffamily%3DSource%2BCode%2BPro;" parent="1" vertex="1">
                    <mxGeometry x="700" y="320" width="50" height="10" as="geometry"/>
                </mxCell>
                <mxCell id="PXCvFyWKQt7oEatczfwv-28" value="" style="pointerEvents=1;verticalLabelPosition=bottom;shadow=0;dashed=0;align=center;html=1;verticalAlign=top;shape=mxgraph.electrical.capacitors.capacitor_1;fontFamily=Source Code Pro;fontSource=https%3A%2F%2Ffonts.googleapis.com%2Fcss%3Ffamily%3DSource%2BCode%2BPro;rotation=90;" parent="1" vertex="1">
                    <mxGeometry x="720" y="339" width="60" height="30" as="geometry"/>
                </mxCell>
                <mxCell id="PXCvFyWKQt7oEatczfwv-29" value="" style="pointerEvents=1;verticalLabelPosition=bottom;shadow=0;dashed=0;align=center;html=1;verticalAlign=top;shape=mxgraph.electrical.signal_sources.signal_ground;fontFamily=Source Code Pro;fontSource=https%3A%2F%2Ffonts.googleapis.com%2Fcss%3Ffamily%3DSource%2BCode%2BPro;" parent="1" vertex="1">
                    <mxGeometry x="735" y="380" width="30" height="20" as="geometry"/>
                </mxCell>
                <mxCell id="PXCvFyWKQt7oEatczfwv-30" value="" style="endArrow=none;html=1;fontFamily=Source Code Pro;fontSource=https%3A%2F%2Ffonts.googleapis.com%2Fcss%3Ffamily%3DSource%2BCode%2BPro;curved=1;exitX=0;exitY=0.5;exitDx=0;exitDy=0;exitPerimeter=0;" parent="1" edge="1">
                    <mxGeometry width="50" height="50" relative="1" as="geometry">
                        <mxPoint x="750" y="325" as="sourcePoint"/>
                        <mxPoint x="790" y="325" as="targetPoint"/>
                    </mxGeometry>
                </mxCell>
                <mxCell id="PXCvFyWKQt7oEatczfwv-31" value="" style="ellipse;whiteSpace=wrap;html=1;aspect=fixed;dashed=1;fontFamily=Source Code Pro;fontSource=https%3A%2F%2Ffonts.googleapis.com%2Fcss%3Ffamily%3DSource%2BCode%2BPro;fillColor=#000000;strokeColor=none;" parent="1" vertex="1">
                    <mxGeometry x="696" y="322" width="6" height="6" as="geometry"/>
                </mxCell>
                <mxCell id="PXCvFyWKQt7oEatczfwv-32" value="" style="ellipse;whiteSpace=wrap;html=1;aspect=fixed;dashed=1;fontFamily=Source Code Pro;fontSource=https%3A%2F%2Ffonts.googleapis.com%2Fcss%3Ffamily%3DSource%2BCode%2BPro;fillColor=#000000;strokeColor=none;" parent="1" vertex="1">
                    <mxGeometry x="747" y="322" width="6" height="6" as="geometry"/>
                </mxCell>
                <mxCell id="PXCvFyWKQt7oEatczfwv-33" value="" style="ellipse;whiteSpace=wrap;html=1;aspect=fixed;dashed=1;fontFamily=Source Code Pro;fontSource=https%3A%2F%2Ffonts.googleapis.com%2Fcss%3Ffamily%3DSource%2BCode%2BPro;fillColor=#000000;strokeColor=none;" parent="1" vertex="1">
                    <mxGeometry x="790" y="322" width="6" height="6" as="geometry"/>
                </mxCell>
                <mxCell id="PXCvFyWKQt7oEatczfwv-46" value="" style="endArrow=none;html=1;fontFamily=Source Code Pro;fontSource=https%3A%2F%2Ffonts.googleapis.com%2Fcss%3Ffamily%3DSource%2BCode%2BPro;curved=1;" parent="1" edge="1">
                    <mxGeometry width="50" height="50" relative="1" as="geometry">
                        <mxPoint x="120" y="600" as="sourcePoint"/>
                        <mxPoint x="120" y="560" as="targetPoint"/>
                    </mxGeometry>
                </mxCell>
                <mxCell id="PXCvFyWKQt7oEatczfwv-47" value="" style="endArrow=none;html=1;fontFamily=Source Code Pro;fontSource=https%3A%2F%2Ffonts.googleapis.com%2Fcss%3Ffamily%3DSource%2BCode%2BPro;curved=1;" parent="1" edge="1">
                    <mxGeometry width="50" height="50" relative="1" as="geometry">
                        <mxPoint x="240" y="599.9999999999999" as="sourcePoint"/>
                        <mxPoint x="240" y="559.9999999999999" as="targetPoint"/>
                    </mxGeometry>
                </mxCell>
                <mxCell id="PXCvFyWKQt7oEatczfwv-48" value="" style="endArrow=none;html=1;fontFamily=Source Code Pro;fontSource=https%3A%2F%2Ffonts.googleapis.com%2Fcss%3Ffamily%3DSource%2BCode%2BPro;curved=1;" parent="1" edge="1">
                    <mxGeometry width="50" height="50" relative="1" as="geometry">
                        <mxPoint x="240" y="560" as="sourcePoint"/>
                        <mxPoint x="120" y="560" as="targetPoint"/>
                    </mxGeometry>
                </mxCell>
                <mxCell id="PXCvFyWKQt7oEatczfwv-49" value="" style="endArrow=none;html=1;fontFamily=Source Code Pro;fontSource=https%3A%2F%2Ffonts.googleapis.com%2Fcss%3Ffamily%3DSource%2BCode%2BPro;curved=1;" parent="1" edge="1">
                    <mxGeometry width="50" height="50" relative="1" as="geometry">
                        <mxPoint x="320" y="600" as="sourcePoint"/>
                        <mxPoint x="240" y="599.9999999999999" as="targetPoint"/>
                    </mxGeometry>
                </mxCell>
                <mxCell id="PXCvFyWKQt7oEatczfwv-50" value="" style="endArrow=none;html=1;fontFamily=Source Code Pro;fontSource=https%3A%2F%2Ffonts.googleapis.com%2Fcss%3Ffamily%3DSource%2BCode%2BPro;curved=1;" parent="1" edge="1">
                    <mxGeometry width="50" height="50" relative="1" as="geometry">
                        <mxPoint x="320" y="599.9999999999999" as="sourcePoint"/>
                        <mxPoint x="320" y="559.9999999999999" as="targetPoint"/>
                    </mxGeometry>
                </mxCell>
                <mxCell id="PXCvFyWKQt7oEatczfwv-51" value="" style="endArrow=none;html=1;fontFamily=Source Code Pro;fontSource=https%3A%2F%2Ffonts.googleapis.com%2Fcss%3Ffamily%3DSource%2BCode%2BPro;curved=1;" parent="1" edge="1">
                    <mxGeometry width="50" height="50" relative="1" as="geometry">
                        <mxPoint x="360" y="599.9999999999999" as="sourcePoint"/>
                        <mxPoint x="360" y="559.9999999999999" as="targetPoint"/>
                    </mxGeometry>
                </mxCell>
                <mxCell id="PXCvFyWKQt7oEatczfwv-52" value="" style="endArrow=none;html=1;fontFamily=Source Code Pro;fontSource=https%3A%2F%2Ffonts.googleapis.com%2Fcss%3Ffamily%3DSource%2BCode%2BPro;curved=1;" parent="1" edge="1">
                    <mxGeometry width="50" height="50" relative="1" as="geometry">
                        <mxPoint x="360" y="560" as="sourcePoint"/>
                        <mxPoint x="320" y="559.9999999999999" as="targetPoint"/>
                    </mxGeometry>
                </mxCell>
                <mxCell id="PXCvFyWKQt7oEatczfwv-53" value="" style="endArrow=none;html=1;fontFamily=Source Code Pro;fontSource=https%3A%2F%2Ffonts.googleapis.com%2Fcss%3Ffamily%3DSource%2BCode%2BPro;curved=1;" parent="1" edge="1">
                    <mxGeometry width="50" height="50" relative="1" as="geometry">
                        <mxPoint x="520" y="599.9999999999999" as="sourcePoint"/>
                        <mxPoint x="360" y="600" as="targetPoint"/>
                    </mxGeometry>
                </mxCell>
                <mxCell id="PXCvFyWKQt7oEatczfwv-54" value="" style="endArrow=none;html=1;fontFamily=Source Code Pro;fontSource=https%3A%2F%2Ffonts.googleapis.com%2Fcss%3Ffamily%3DSource%2BCode%2BPro;curved=1;" parent="1" edge="1">
                    <mxGeometry width="50" height="50" relative="1" as="geometry">
                        <mxPoint x="520" y="599.9999999999999" as="sourcePoint"/>
                        <mxPoint x="520" y="559.9999999999999" as="targetPoint"/>
                    </mxGeometry>
                </mxCell>
                <mxCell id="PXCvFyWKQt7oEatczfwv-55" value="" style="endArrow=none;html=1;fontFamily=Source Code Pro;fontSource=https%3A%2F%2Ffonts.googleapis.com%2Fcss%3Ffamily%3DSource%2BCode%2BPro;curved=1;" parent="1" edge="1">
                    <mxGeometry width="50" height="50" relative="1" as="geometry">
                        <mxPoint x="600" y="599.9999999999999" as="sourcePoint"/>
                        <mxPoint x="600" y="559.9999999999999" as="targetPoint"/>
                    </mxGeometry>
                </mxCell>
                <mxCell id="PXCvFyWKQt7oEatczfwv-56" value="" style="endArrow=none;html=1;fontFamily=Source Code Pro;fontSource=https%3A%2F%2Ffonts.googleapis.com%2Fcss%3Ffamily%3DSource%2BCode%2BPro;curved=1;" parent="1" edge="1">
                    <mxGeometry width="50" height="50" relative="1" as="geometry">
                        <mxPoint x="600" y="560" as="sourcePoint"/>
                        <mxPoint x="520" y="559.9999999999999" as="targetPoint"/>
                    </mxGeometry>
                </mxCell>
                <mxCell id="PXCvFyWKQt7oEatczfwv-57" value="" style="endArrow=none;html=1;fontFamily=Source Code Pro;fontSource=https%3A%2F%2Ffonts.googleapis.com%2Fcss%3Ffamily%3DSource%2BCode%2BPro;curved=1;" parent="1" edge="1">
                    <mxGeometry width="50" height="50" relative="1" as="geometry">
                        <mxPoint x="720" y="599.9999999999999" as="sourcePoint"/>
                        <mxPoint x="600" y="600" as="targetPoint"/>
                    </mxGeometry>
                </mxCell>
                <mxCell id="PXCvFyWKQt7oEatczfwv-58" value="" style="endArrow=none;html=1;fontFamily=Source Code Pro;fontSource=https%3A%2F%2Ffonts.googleapis.com%2Fcss%3Ffamily%3DSource%2BCode%2BPro;curved=1;" parent="1" edge="1">
                    <mxGeometry width="50" height="50" relative="1" as="geometry">
                        <mxPoint x="720" y="599.9999999999999" as="sourcePoint"/>
                        <mxPoint x="720" y="559.9999999999999" as="targetPoint"/>
                    </mxGeometry>
                </mxCell>
                <mxCell id="PXCvFyWKQt7oEatczfwv-59" value="" style="endArrow=none;html=1;fontFamily=Source Code Pro;fontSource=https%3A%2F%2Ffonts.googleapis.com%2Fcss%3Ffamily%3DSource%2BCode%2BPro;curved=1;" parent="1" edge="1">
                    <mxGeometry width="50" height="50" relative="1" as="geometry">
                        <mxPoint x="879" y="599.9999999999999" as="sourcePoint"/>
                        <mxPoint x="879" y="559.9999999999999" as="targetPoint"/>
                    </mxGeometry>
                </mxCell>
                <mxCell id="PXCvFyWKQt7oEatczfwv-60" value="" style="endArrow=none;html=1;fontFamily=Source Code Pro;fontSource=https%3A%2F%2Ffonts.googleapis.com%2Fcss%3Ffamily%3DSource%2BCode%2BPro;curved=1;" parent="1" edge="1">
                    <mxGeometry width="50" height="50" relative="1" as="geometry">
                        <mxPoint x="880" y="560" as="sourcePoint"/>
                        <mxPoint x="720" y="559.9999999999999" as="targetPoint"/>
                    </mxGeometry>
                </mxCell>
                <mxCell id="PXCvFyWKQt7oEatczfwv-61" value="" style="endArrow=none;html=1;fontFamily=Source Code Pro;fontSource=https%3A%2F%2Ffonts.googleapis.com%2Fcss%3Ffamily%3DSource%2BCode%2BPro;curved=1;" parent="1" edge="1">
                    <mxGeometry width="50" height="50" relative="1" as="geometry">
                        <mxPoint x="920" y="599.9999999999999" as="sourcePoint"/>
                        <mxPoint x="880" y="600" as="targetPoint"/>
                    </mxGeometry>
                </mxCell>
                <mxCell id="PXCvFyWKQt7oEatczfwv-62" value="" style="endArrow=none;html=1;fontFamily=Source Code Pro;fontSource=https%3A%2F%2Ffonts.googleapis.com%2Fcss%3Ffamily%3DSource%2BCode%2BPro;curved=1;opacity=70;" parent="1" edge="1">
                    <mxGeometry width="50" height="50" relative="1" as="geometry">
                        <mxPoint x="120" y="640" as="sourcePoint"/>
                        <mxPoint x="320" y="640" as="targetPoint"/>
                    </mxGeometry>
                </mxCell>
                <mxCell id="PXCvFyWKQt7oEatczfwv-68" value="Period" style="edgeLabel;html=1;align=center;verticalAlign=middle;resizable=0;points=[];fontFamily=Source Code Pro;" parent="PXCvFyWKQt7oEatczfwv-62" vertex="1" connectable="0">
                    <mxGeometry x="-0.0774" relative="1" as="geometry">
                        <mxPoint x="7" y="-7" as="offset"/>
                    </mxGeometry>
                </mxCell>
                <mxCell id="PXCvFyWKQt7oEatczfwv-63" value="" style="endArrow=none;html=1;fontFamily=Source Code Pro;fontSource=https%3A%2F%2Ffonts.googleapis.com%2Fcss%3Ffamily%3DSource%2BCode%2BPro;curved=1;opacity=70;" parent="1" edge="1">
                    <mxGeometry width="50" height="50" relative="1" as="geometry">
                        <mxPoint x="120" y="630" as="sourcePoint"/>
                        <mxPoint x="120" y="650" as="targetPoint"/>
                    </mxGeometry>
                </mxCell>
                <mxCell id="PXCvFyWKQt7oEatczfwv-64" value="" style="endArrow=none;html=1;fontFamily=Source Code Pro;fontSource=https%3A%2F%2Ffonts.googleapis.com%2Fcss%3Ffamily%3DSource%2BCode%2BPro;curved=1;opacity=70;" parent="1" edge="1">
                    <mxGeometry width="50" height="50" relative="1" as="geometry">
                        <mxPoint x="320" y="630" as="sourcePoint"/>
                        <mxPoint x="320" y="650" as="targetPoint"/>
                    </mxGeometry>
                </mxCell>
                <mxCell id="PXCvFyWKQt7oEatczfwv-65" value="" style="endArrow=none;html=1;fontFamily=Source Code Pro;fontSource=https%3A%2F%2Ffonts.googleapis.com%2Fcss%3Ffamily%3DSource%2BCode%2BPro;curved=1;opacity=70;" parent="1" edge="1">
                    <mxGeometry width="50" height="50" relative="1" as="geometry">
                        <mxPoint x="120" y="520" as="sourcePoint"/>
                        <mxPoint x="240" y="520" as="targetPoint"/>
                    </mxGeometry>
                </mxCell>
                <mxCell id="PXCvFyWKQt7oEatczfwv-69" value="Duty Cycle" style="edgeLabel;html=1;align=center;verticalAlign=middle;resizable=0;points=[];fontFamily=Source Code Pro;" parent="PXCvFyWKQt7oEatczfwv-65" vertex="1" connectable="0">
                    <mxGeometry x="-0.2031" y="2" relative="1" as="geometry">
                        <mxPoint x="11" y="-5" as="offset"/>
                    </mxGeometry>
                </mxCell>
                <mxCell id="PXCvFyWKQt7oEatczfwv-66" value="" style="endArrow=none;html=1;fontFamily=Source Code Pro;fontSource=https%3A%2F%2Ffonts.googleapis.com%2Fcss%3Ffamily%3DSource%2BCode%2BPro;curved=1;opacity=70;" parent="1" edge="1">
                    <mxGeometry width="50" height="50" relative="1" as="geometry">
                        <mxPoint x="120" y="510" as="sourcePoint"/>
                        <mxPoint x="120" y="530" as="targetPoint"/>
                    </mxGeometry>
                </mxCell>
                <mxCell id="PXCvFyWKQt7oEatczfwv-67" value="" style="endArrow=none;html=1;fontFamily=Source Code Pro;fontSource=https%3A%2F%2Ffonts.googleapis.com%2Fcss%3Ffamily%3DSource%2BCode%2BPro;curved=1;opacity=70;" parent="1" edge="1">
                    <mxGeometry width="50" height="50" relative="1" as="geometry">
                        <mxPoint x="240" y="510" as="sourcePoint"/>
                        <mxPoint x="240" y="530" as="targetPoint"/>
                    </mxGeometry>
                </mxCell>
                <mxCell id="PXCvFyWKQt7oEatczfwv-70" value="" style="endArrow=none;html=1;fontFamily=Source Code Pro;fontSource=https%3A%2F%2Ffonts.googleapis.com%2Fcss%3Ffamily%3DSource%2BCode%2BPro;curved=1;opacity=70;" parent="1" edge="1">
                    <mxGeometry width="50" height="50" relative="1" as="geometry">
                        <mxPoint x="320" y="640" as="sourcePoint"/>
                        <mxPoint x="520" y="640" as="targetPoint"/>
                    </mxGeometry>
                </mxCell>
                <mxCell id="PXCvFyWKQt7oEatczfwv-72" value="" style="endArrow=none;html=1;fontFamily=Source Code Pro;fontSource=https%3A%2F%2Ffonts.googleapis.com%2Fcss%3Ffamily%3DSource%2BCode%2BPro;curved=1;opacity=70;" parent="1" edge="1">
                    <mxGeometry width="50" height="50" relative="1" as="geometry">
                        <mxPoint x="320" y="630" as="sourcePoint"/>
                        <mxPoint x="320" y="650" as="targetPoint"/>
                    </mxGeometry>
                </mxCell>
                <mxCell id="PXCvFyWKQt7oEatczfwv-73" value="" style="endArrow=none;html=1;fontFamily=Source Code Pro;fontSource=https%3A%2F%2Ffonts.googleapis.com%2Fcss%3Ffamily%3DSource%2BCode%2BPro;curved=1;opacity=70;" parent="1" edge="1">
                    <mxGeometry width="50" height="50" relative="1" as="geometry">
                        <mxPoint x="520" y="630" as="sourcePoint"/>
                        <mxPoint x="520" y="650" as="targetPoint"/>
                    </mxGeometry>
                </mxCell>
                <mxCell id="PXCvFyWKQt7oEatczfwv-74" value="" style="endArrow=none;html=1;fontFamily=Source Code Pro;fontSource=https%3A%2F%2Ffonts.googleapis.com%2Fcss%3Ffamily%3DSource%2BCode%2BPro;curved=1;opacity=70;" parent="1" edge="1">
                    <mxGeometry width="50" height="50" relative="1" as="geometry">
                        <mxPoint x="520" y="640" as="sourcePoint"/>
                        <mxPoint x="720" y="640" as="targetPoint"/>
                    </mxGeometry>
                </mxCell>
                <mxCell id="PXCvFyWKQt7oEatczfwv-76" value="" style="endArrow=none;html=1;fontFamily=Source Code Pro;fontSource=https%3A%2F%2Ffonts.googleapis.com%2Fcss%3Ffamily%3DSource%2BCode%2BPro;curved=1;opacity=70;" parent="1" edge="1">
                    <mxGeometry width="50" height="50" relative="1" as="geometry">
                        <mxPoint x="520" y="630" as="sourcePoint"/>
                        <mxPoint x="520" y="650" as="targetPoint"/>
                    </mxGeometry>
                </mxCell>
                <mxCell id="PXCvFyWKQt7oEatczfwv-77" value="" style="endArrow=none;html=1;fontFamily=Source Code Pro;fontSource=https%3A%2F%2Ffonts.googleapis.com%2Fcss%3Ffamily%3DSource%2BCode%2BPro;curved=1;opacity=70;" parent="1" edge="1">
                    <mxGeometry width="50" height="50" relative="1" as="geometry">
                        <mxPoint x="720" y="630" as="sourcePoint"/>
                        <mxPoint x="720" y="650" as="targetPoint"/>
                    </mxGeometry>
                </mxCell>
                <mxCell id="PXCvFyWKQt7oEatczfwv-78" value="" style="endArrow=none;html=1;fontFamily=Source Code Pro;fontSource=https%3A%2F%2Ffonts.googleapis.com%2Fcss%3Ffamily%3DSource%2BCode%2BPro;curved=1;opacity=70;" parent="1" edge="1">
                    <mxGeometry width="50" height="50" relative="1" as="geometry">
                        <mxPoint x="720" y="640" as="sourcePoint"/>
                        <mxPoint x="920" y="640" as="targetPoint"/>
                    </mxGeometry>
                </mxCell>
                <mxCell id="PXCvFyWKQt7oEatczfwv-80" value="" style="endArrow=none;html=1;fontFamily=Source Code Pro;fontSource=https%3A%2F%2Ffonts.googleapis.com%2Fcss%3Ffamily%3DSource%2BCode%2BPro;curved=1;opacity=70;" parent="1" edge="1">
                    <mxGeometry width="50" height="50" relative="1" as="geometry">
                        <mxPoint x="720" y="630" as="sourcePoint"/>
                        <mxPoint x="720" y="650" as="targetPoint"/>
                    </mxGeometry>
                </mxCell>
                <mxCell id="PXCvFyWKQt7oEatczfwv-81" value="" style="endArrow=none;html=1;fontFamily=Source Code Pro;fontSource=https%3A%2F%2Ffonts.googleapis.com%2Fcss%3Ffamily%3DSource%2BCode%2BPro;curved=1;opacity=70;" parent="1" edge="1">
                    <mxGeometry width="50" height="50" relative="1" as="geometry">
                        <mxPoint x="920" y="630" as="sourcePoint"/>
                        <mxPoint x="920" y="650" as="targetPoint"/>
                    </mxGeometry>
                </mxCell>
                <mxCell id="PXCvFyWKQt7oEatczfwv-82" value="" style="endArrow=none;html=1;fontFamily=Source Code Pro;fontSource=https%3A%2F%2Ffonts.googleapis.com%2Fcss%3Ffamily%3DSource%2BCode%2BPro;opacity=70;curved=1;" parent="1" edge="1">
                    <mxGeometry width="50" height="50" relative="1" as="geometry">
                        <mxPoint x="120" y="930" as="sourcePoint"/>
                        <mxPoint x="120" y="720" as="targetPoint"/>
                    </mxGeometry>
                </mxCell>
                <mxCell id="PXCvFyWKQt7oEatczfwv-83" value="" style="endArrow=none;html=1;fontFamily=Source Code Pro;fontSource=https%3A%2F%2Ffonts.googleapis.com%2Fcss%3Ffamily%3DSource%2BCode%2BPro;opacity=70;curved=1;" parent="1" edge="1">
                    <mxGeometry width="50" height="50" relative="1" as="geometry">
                        <mxPoint x="920" y="919" as="sourcePoint"/>
                        <mxPoint x="110" y="919" as="targetPoint"/>
                    </mxGeometry>
                </mxCell>
                <mxCell id="PXCvFyWKQt7oEatczfwv-84" value="" style="endArrow=none;html=1;fontFamily=Source Code Pro;fontSource=https%3A%2F%2Ffonts.googleapis.com%2Fcss%3Ffamily%3DSource%2BCode%2BPro;curved=1;fillColor=#f8cecc;strokeColor=#b85450;" parent="1" edge="1">
                    <mxGeometry width="50" height="50" relative="1" as="geometry">
                        <mxPoint x="120" y="800" as="sourcePoint"/>
                        <mxPoint x="240" y="800" as="targetPoint"/>
                    </mxGeometry>
                </mxCell>
                <mxCell id="PXCvFyWKQt7oEatczfwv-85" value="" style="endArrow=none;html=1;fontFamily=Source Code Pro;fontSource=https%3A%2F%2Ffonts.googleapis.com%2Fcss%3Ffamily%3DSource%2BCode%2BPro;edgeStyle=entityRelationEdgeStyle;jumpStyle=none;fillColor=#f8cecc;strokeColor=#b85450;" parent="1" edge="1">
                    <mxGeometry width="50" height="50" relative="1" as="geometry">
                        <mxPoint x="240" y="800" as="sourcePoint"/>
                        <mxPoint x="440" y="880" as="targetPoint"/>
                    </mxGeometry>
                </mxCell>
                <mxCell id="PXCvFyWKQt7oEatczfwv-86" value="" style="endArrow=none;html=1;fontFamily=Source Code Pro;fontSource=https%3A%2F%2Ffonts.googleapis.com%2Fcss%3Ffamily%3DSource%2BCode%2BPro;edgeStyle=entityRelationEdgeStyle;jumpStyle=none;fillColor=#f8cecc;strokeColor=#b85450;" parent="1" edge="1">
                    <mxGeometry width="50" height="50" relative="1" as="geometry">
                        <mxPoint x="440" y="880" as="sourcePoint"/>
                        <mxPoint x="640" y="840" as="targetPoint"/>
                    </mxGeometry>
                </mxCell>
                <mxCell id="PXCvFyWKQt7oEatczfwv-87" value="" style="endArrow=none;html=1;fontFamily=Source Code Pro;fontSource=https%3A%2F%2Ffonts.googleapis.com%2Fcss%3Ffamily%3DSource%2BCode%2BPro;edgeStyle=entityRelationEdgeStyle;jumpStyle=none;fillColor=#f8cecc;strokeColor=#b85450;" parent="1" edge="1">
                    <mxGeometry width="50" height="50" relative="1" as="geometry">
                        <mxPoint x="640" y="840" as="sourcePoint"/>
                        <mxPoint x="920" y="760" as="targetPoint"/>
                    </mxGeometry>
                </mxCell>
                <mxCell id="PXCvFyWKQt7oEatczfwv-88" value="Time" style="edgeLabel;html=1;align=center;verticalAlign=middle;resizable=0;points=[];fontFamily=Source Code Pro;" parent="1" vertex="1" connectable="0">
                    <mxGeometry x="520.0025925925927" y="940" as="geometry"/>
                </mxCell>
                <mxCell id="PXCvFyWKQt7oEatczfwv-89" value="Voltage" style="edgeLabel;html=1;align=center;verticalAlign=middle;resizable=0;points=[];fontFamily=Source Code Pro;" parent="1" vertex="1" connectable="0">
                    <mxGeometry x="80.00259259259263" y="810" as="geometry"/>
                </mxCell>
                <mxCell id="PXCvFyWKQt7oEatczfwv-91" value="" style="endArrow=none;html=1;fontFamily=Source Code Pro;fontSource=https%3A%2F%2Ffonts.googleapis.com%2Fcss%3Ffamily%3DSource%2BCode%2BPro;curved=1;opacity=70;dashed=1;" parent="1" edge="1">
                    <mxGeometry width="50" height="50" relative="1" as="geometry">
                        <mxPoint x="240" y="520" as="sourcePoint"/>
                        <mxPoint x="320" y="520" as="targetPoint"/>
                    </mxGeometry>
                </mxCell>
                <mxCell id="PXCvFyWKQt7oEatczfwv-93" value="" style="endArrow=none;html=1;fontFamily=Source Code Pro;fontSource=https%3A%2F%2Ffonts.googleapis.com%2Fcss%3Ffamily%3DSource%2BCode%2BPro;curved=1;opacity=70;" parent="1" edge="1">
                    <mxGeometry width="50" height="50" relative="1" as="geometry">
                        <mxPoint x="320" y="510" as="sourcePoint"/>
                        <mxPoint x="320" y="530" as="targetPoint"/>
                    </mxGeometry>
                </mxCell>
                <mxCell id="PXCvFyWKQt7oEatczfwv-94" value="" style="endArrow=none;html=1;fontFamily=Source Code Pro;fontSource=https%3A%2F%2Ffonts.googleapis.com%2Fcss%3Ffamily%3DSource%2BCode%2BPro;curved=1;opacity=70;" parent="1" edge="1">
                    <mxGeometry width="50" height="50" relative="1" as="geometry">
                        <mxPoint x="320" y="520" as="sourcePoint"/>
                        <mxPoint x="360" y="520" as="targetPoint"/>
                    </mxGeometry>
                </mxCell>
                <mxCell id="PXCvFyWKQt7oEatczfwv-96" value="" style="endArrow=none;html=1;fontFamily=Source Code Pro;fontSource=https%3A%2F%2Ffonts.googleapis.com%2Fcss%3Ffamily%3DSource%2BCode%2BPro;curved=1;opacity=70;" parent="1" edge="1">
                    <mxGeometry width="50" height="50" relative="1" as="geometry">
                        <mxPoint x="320" y="510" as="sourcePoint"/>
                        <mxPoint x="320" y="530" as="targetPoint"/>
                    </mxGeometry>
                </mxCell>
                <mxCell id="PXCvFyWKQt7oEatczfwv-97" value="" style="endArrow=none;html=1;fontFamily=Source Code Pro;fontSource=https%3A%2F%2Ffonts.googleapis.com%2Fcss%3Ffamily%3DSource%2BCode%2BPro;curved=1;opacity=70;" parent="1" edge="1">
                    <mxGeometry width="50" height="50" relative="1" as="geometry">
                        <mxPoint x="360" y="510" as="sourcePoint"/>
                        <mxPoint x="360" y="530" as="targetPoint"/>
                    </mxGeometry>
                </mxCell>
                <mxCell id="PXCvFyWKQt7oEatczfwv-98" value="" style="endArrow=none;html=1;fontFamily=Source Code Pro;fontSource=https%3A%2F%2Ffonts.googleapis.com%2Fcss%3Ffamily%3DSource%2BCode%2BPro;curved=1;opacity=70;dashed=1;" parent="1" edge="1">
                    <mxGeometry width="50" height="50" relative="1" as="geometry">
                        <mxPoint x="360" y="520" as="sourcePoint"/>
                        <mxPoint x="520" y="520" as="targetPoint"/>
                    </mxGeometry>
                </mxCell>
                <mxCell id="PXCvFyWKQt7oEatczfwv-99" value="" style="endArrow=none;html=1;fontFamily=Source Code Pro;fontSource=https%3A%2F%2Ffonts.googleapis.com%2Fcss%3Ffamily%3DSource%2BCode%2BPro;curved=1;opacity=70;" parent="1" edge="1">
                    <mxGeometry width="50" height="50" relative="1" as="geometry">
                        <mxPoint x="520" y="510" as="sourcePoint"/>
                        <mxPoint x="520" y="530" as="targetPoint"/>
                    </mxGeometry>
                </mxCell>
                <mxCell id="PXCvFyWKQt7oEatczfwv-100" value="" style="endArrow=none;html=1;fontFamily=Source Code Pro;fontSource=https%3A%2F%2Ffonts.googleapis.com%2Fcss%3Ffamily%3DSource%2BCode%2BPro;curved=1;opacity=70;" parent="1" edge="1">
                    <mxGeometry width="50" height="50" relative="1" as="geometry">
                        <mxPoint x="520" y="520" as="sourcePoint"/>
                        <mxPoint x="600" y="520" as="targetPoint"/>
                    </mxGeometry>
                </mxCell>
                <mxCell id="PXCvFyWKQt7oEatczfwv-102" value="" style="endArrow=none;html=1;fontFamily=Source Code Pro;fontSource=https%3A%2F%2Ffonts.googleapis.com%2Fcss%3Ffamily%3DSource%2BCode%2BPro;curved=1;opacity=70;" parent="1" edge="1">
                    <mxGeometry width="50" height="50" relative="1" as="geometry">
                        <mxPoint x="520" y="510" as="sourcePoint"/>
                        <mxPoint x="520" y="530" as="targetPoint"/>
                    </mxGeometry>
                </mxCell>
                <mxCell id="PXCvFyWKQt7oEatczfwv-103" value="" style="endArrow=none;html=1;fontFamily=Source Code Pro;fontSource=https%3A%2F%2Ffonts.googleapis.com%2Fcss%3Ffamily%3DSource%2BCode%2BPro;curved=1;opacity=70;" parent="1" edge="1">
                    <mxGeometry width="50" height="50" relative="1" as="geometry">
                        <mxPoint x="600" y="510" as="sourcePoint"/>
                        <mxPoint x="600" y="530" as="targetPoint"/>
                    </mxGeometry>
                </mxCell>
                <mxCell id="PXCvFyWKQt7oEatczfwv-104" value="" style="endArrow=none;html=1;fontFamily=Source Code Pro;fontSource=https%3A%2F%2Ffonts.googleapis.com%2Fcss%3Ffamily%3DSource%2BCode%2BPro;curved=1;opacity=70;dashed=1;" parent="1" edge="1">
                    <mxGeometry width="50" height="50" relative="1" as="geometry">
                        <mxPoint x="600" y="520" as="sourcePoint"/>
                        <mxPoint x="720" y="520" as="targetPoint"/>
                    </mxGeometry>
                </mxCell>
                <mxCell id="PXCvFyWKQt7oEatczfwv-105" value="" style="endArrow=none;html=1;fontFamily=Source Code Pro;fontSource=https%3A%2F%2Ffonts.googleapis.com%2Fcss%3Ffamily%3DSource%2BCode%2BPro;curved=1;opacity=70;" parent="1" edge="1">
                    <mxGeometry width="50" height="50" relative="1" as="geometry">
                        <mxPoint x="720" y="510" as="sourcePoint"/>
                        <mxPoint x="720" y="530" as="targetPoint"/>
                    </mxGeometry>
                </mxCell>
                <mxCell id="PXCvFyWKQt7oEatczfwv-106" value="" style="endArrow=none;html=1;fontFamily=Source Code Pro;fontSource=https%3A%2F%2Ffonts.googleapis.com%2Fcss%3Ffamily%3DSource%2BCode%2BPro;curved=1;opacity=70;" parent="1" edge="1">
                    <mxGeometry width="50" height="50" relative="1" as="geometry">
                        <mxPoint x="720" y="520" as="sourcePoint"/>
                        <mxPoint x="880" y="520" as="targetPoint"/>
                    </mxGeometry>
                </mxCell>
                <mxCell id="PXCvFyWKQt7oEatczfwv-108" value="" style="endArrow=none;html=1;fontFamily=Source Code Pro;fontSource=https%3A%2F%2Ffonts.googleapis.com%2Fcss%3Ffamily%3DSource%2BCode%2BPro;curved=1;opacity=70;" parent="1" edge="1">
                    <mxGeometry width="50" height="50" relative="1" as="geometry">
                        <mxPoint x="720" y="510" as="sourcePoint"/>
                        <mxPoint x="720" y="530" as="targetPoint"/>
                    </mxGeometry>
                </mxCell>
                <mxCell id="PXCvFyWKQt7oEatczfwv-109" value="" style="endArrow=none;html=1;fontFamily=Source Code Pro;fontSource=https%3A%2F%2Ffonts.googleapis.com%2Fcss%3Ffamily%3DSource%2BCode%2BPro;curved=1;opacity=70;" parent="1" edge="1">
                    <mxGeometry width="50" height="50" relative="1" as="geometry">
                        <mxPoint x="880" y="510" as="sourcePoint"/>
                        <mxPoint x="880" y="530" as="targetPoint"/>
                    </mxGeometry>
                </mxCell>
                <mxCell id="PXCvFyWKQt7oEatczfwv-110" value="" style="endArrow=none;html=1;fontFamily=Source Code Pro;fontSource=https%3A%2F%2Ffonts.googleapis.com%2Fcss%3Ffamily%3DSource%2BCode%2BPro;curved=1;opacity=70;dashed=1;" parent="1" edge="1">
                    <mxGeometry width="50" height="50" relative="1" as="geometry">
                        <mxPoint x="880" y="520" as="sourcePoint"/>
                        <mxPoint x="920" y="520" as="targetPoint"/>
                    </mxGeometry>
                </mxCell>
                <mxCell id="PXCvFyWKQt7oEatczfwv-111" value="" style="endArrow=none;html=1;fontFamily=Source Code Pro;fontSource=https%3A%2F%2Ffonts.googleapis.com%2Fcss%3Ffamily%3DSource%2BCode%2BPro;curved=1;opacity=70;" parent="1" edge="1">
                    <mxGeometry width="50" height="50" relative="1" as="geometry">
                        <mxPoint x="920" y="510" as="sourcePoint"/>
                        <mxPoint x="920" y="530" as="targetPoint"/>
                    </mxGeometry>
                </mxCell>
                <mxCell id="PXCvFyWKQt7oEatczfwv-113" value="&lt;p style=&quot;line-height: 230%;&quot;&gt;&lt;font style=&quot;font-size: 12px;&quot;&gt;&lt;i&gt;xs&lt;/i&gt; = { 39, 102, 126, 96, 97, 143, 15, 178, 133, 148, 235, 101, ... };&lt;br&gt;&lt;i&gt;ys&lt;/i&gt; = {&amp;nbsp;106, 216, 185, 205, 91, 205, 92, 225, 131, 47, 42, 99, ...&amp;nbsp; };&lt;/font&gt;&lt;br&gt;&lt;/p&gt;" style="text;html=1;strokeColor=default;fillColor=default;align=left;verticalAlign=middle;whiteSpace=wrap;rounded=0;shadow=1;sketch=0;fillStyle=auto;fontFamily=Source Code Pro;fontSource=https%3A%2F%2Ffonts.googleapis.com%2Fcss%3Ffamily%3DSource%2BCode%2BPro;spacingLeft=6;" parent="1" vertex="1">
                    <mxGeometry x="60" y="75" width="520" height="60" as="geometry"/>
                </mxCell>
            </root>
        </mxGraphModel>
    </diagram>
    <diagram id="jtzR3Vxi7ezSOcF9fMfL" name="Basic Image">
        <mxGraphModel dx="1195" dy="769" grid="1" gridSize="10" guides="1" tooltips="1" connect="1" arrows="1" fold="1" page="1" pageScale="1" pageWidth="850" pageHeight="1100" math="0" shadow="0">
            <root>
                <mxCell id="0"/>
                <mxCell id="1" parent="0"/>
                <mxCell id="WnE581g1JwL_uMXCxE2F-1" value="" style="endArrow=none;html=1;fontFamily=Source Code Pro;fontSource=https%3A%2F%2Ffonts.googleapis.com%2Fcss%3Ffamily%3DSource%2BCode%2BPro;fontSize=12;jumpStyle=none;entryX=1;entryY=0.5;entryDx=0;entryDy=0;movable=0;resizable=0;rotatable=0;deletable=0;editable=0;connectable=0;" parent="1" target="WnE581g1JwL_uMXCxE2F-12" edge="1">
                    <mxGeometry width="50" height="50" relative="1" as="geometry">
                        <mxPoint x="120" y="450" as="sourcePoint"/>
                        <mxPoint x="120" y="-40" as="targetPoint"/>
                    </mxGeometry>
                </mxCell>
                <mxCell id="WnE581g1JwL_uMXCxE2F-2" value="" style="endArrow=none;html=1;fontFamily=Source Code Pro;fontSource=https%3A%2F%2Ffonts.googleapis.com%2Fcss%3Ffamily%3DSource%2BCode%2BPro;fontSize=12;jumpStyle=none;movable=0;resizable=0;rotatable=0;deletable=0;editable=0;connectable=0;" parent="1" edge="1">
                    <mxGeometry width="50" height="50" relative="1" as="geometry">
                        <mxPoint x="480" y="440" as="sourcePoint"/>
                        <mxPoint x="110" y="440" as="targetPoint"/>
                    </mxGeometry>
                </mxCell>
                <mxCell id="WnE581g1JwL_uMXCxE2F-3" value="0" style="text;html=1;strokeColor=none;fillColor=none;align=center;verticalAlign=middle;whiteSpace=wrap;rounded=0;shadow=1;sketch=0;fillStyle=auto;fontFamily=Source Code Pro;fontSource=https%3A%2F%2Ffonts.googleapis.com%2Fcss%3Ffamily%3DSource%2BCode%2BPro;fontSize=12;movable=0;resizable=0;rotatable=0;deletable=0;editable=0;connectable=0;" parent="1" vertex="1">
                    <mxGeometry x="81" y="425" width="40" height="30" as="geometry"/>
                </mxCell>
                <mxCell id="WnE581g1JwL_uMXCxE2F-4" value="1" style="text;html=1;strokeColor=none;fillColor=none;align=center;verticalAlign=middle;whiteSpace=wrap;rounded=0;shadow=1;sketch=0;fillStyle=auto;fontFamily=Source Code Pro;fontSource=https%3A%2F%2Ffonts.googleapis.com%2Fcss%3Ffamily%3DSource%2BCode%2BPro;fontSize=12;movable=0;resizable=0;rotatable=0;deletable=0;editable=0;connectable=0;" parent="1" vertex="1">
                    <mxGeometry x="81" y="385" width="40" height="30" as="geometry"/>
                </mxCell>
                <mxCell id="WnE581g1JwL_uMXCxE2F-5" value="2" style="text;html=1;strokeColor=none;fillColor=none;align=center;verticalAlign=middle;whiteSpace=wrap;rounded=0;shadow=1;sketch=0;fillStyle=auto;fontFamily=Source Code Pro;fontSource=https%3A%2F%2Ffonts.googleapis.com%2Fcss%3Ffamily%3DSource%2BCode%2BPro;fontSize=12;movable=0;resizable=0;rotatable=0;deletable=0;editable=0;connectable=0;" parent="1" vertex="1">
                    <mxGeometry x="81" y="345" width="40" height="30" as="geometry"/>
                </mxCell>
                <mxCell id="WnE581g1JwL_uMXCxE2F-6" value="3" style="text;html=1;strokeColor=none;fillColor=none;align=center;verticalAlign=middle;whiteSpace=wrap;rounded=0;shadow=1;sketch=0;fillStyle=auto;fontFamily=Source Code Pro;fontSource=https%3A%2F%2Ffonts.googleapis.com%2Fcss%3Ffamily%3DSource%2BCode%2BPro;fontSize=12;movable=0;resizable=0;rotatable=0;deletable=0;editable=0;connectable=0;" parent="1" vertex="1">
                    <mxGeometry x="81" y="305" width="40" height="30" as="geometry"/>
                </mxCell>
                <mxCell id="WnE581g1JwL_uMXCxE2F-7" value="4" style="text;html=1;strokeColor=none;fillColor=none;align=center;verticalAlign=middle;whiteSpace=wrap;rounded=0;shadow=1;sketch=0;fillStyle=auto;fontFamily=Source Code Pro;fontSource=https%3A%2F%2Ffonts.googleapis.com%2Fcss%3Ffamily%3DSource%2BCode%2BPro;fontSize=12;movable=0;resizable=0;rotatable=0;deletable=0;editable=0;connectable=0;" parent="1" vertex="1">
                    <mxGeometry x="81" y="265" width="40" height="30" as="geometry"/>
                </mxCell>
                <mxCell id="WnE581g1JwL_uMXCxE2F-8" value="5" style="text;html=1;strokeColor=none;fillColor=none;align=center;verticalAlign=middle;whiteSpace=wrap;rounded=0;shadow=1;sketch=0;fillStyle=auto;fontFamily=Source Code Pro;fontSource=https%3A%2F%2Ffonts.googleapis.com%2Fcss%3Ffamily%3DSource%2BCode%2BPro;fontSize=12;movable=0;resizable=0;rotatable=0;deletable=0;editable=0;connectable=0;" parent="1" vertex="1">
                    <mxGeometry x="81" y="225" width="40" height="30" as="geometry"/>
                </mxCell>
                <mxCell id="WnE581g1JwL_uMXCxE2F-9" value="6" style="text;html=1;strokeColor=none;fillColor=none;align=center;verticalAlign=middle;whiteSpace=wrap;rounded=0;shadow=1;sketch=0;fillStyle=auto;fontFamily=Source Code Pro;fontSource=https%3A%2F%2Ffonts.googleapis.com%2Fcss%3Ffamily%3DSource%2BCode%2BPro;fontSize=12;movable=0;resizable=0;rotatable=0;deletable=0;editable=0;connectable=0;" parent="1" vertex="1">
                    <mxGeometry x="81" y="185" width="40" height="30" as="geometry"/>
                </mxCell>
                <mxCell id="WnE581g1JwL_uMXCxE2F-10" value="7" style="text;html=1;strokeColor=none;fillColor=none;align=center;verticalAlign=middle;whiteSpace=wrap;rounded=0;shadow=1;sketch=0;fillStyle=auto;fontFamily=Source Code Pro;fontSource=https%3A%2F%2Ffonts.googleapis.com%2Fcss%3Ffamily%3DSource%2BCode%2BPro;fontSize=12;movable=0;resizable=0;rotatable=0;deletable=0;editable=0;connectable=0;" parent="1" vertex="1">
                    <mxGeometry x="81" y="145" width="40" height="30" as="geometry"/>
                </mxCell>
                <mxCell id="WnE581g1JwL_uMXCxE2F-11" value="8" style="text;html=1;strokeColor=none;fillColor=none;align=center;verticalAlign=middle;whiteSpace=wrap;rounded=0;shadow=1;sketch=0;fillStyle=auto;fontFamily=Source Code Pro;fontSource=https%3A%2F%2Ffonts.googleapis.com%2Fcss%3Ffamily%3DSource%2BCode%2BPro;fontSize=12;movable=0;resizable=0;rotatable=0;deletable=0;editable=0;connectable=0;" parent="1" vertex="1">
                    <mxGeometry x="81" y="105" width="40" height="30" as="geometry"/>
                </mxCell>
                <mxCell id="WnE581g1JwL_uMXCxE2F-12" value="9" style="text;html=1;strokeColor=none;fillColor=none;align=center;verticalAlign=middle;whiteSpace=wrap;rounded=0;shadow=1;sketch=0;fillStyle=auto;fontFamily=Source Code Pro;fontSource=https%3A%2F%2Ffonts.googleapis.com%2Fcss%3Ffamily%3DSource%2BCode%2BPro;fontSize=12;movable=0;resizable=0;rotatable=0;deletable=0;editable=0;connectable=0;" parent="1" vertex="1">
                    <mxGeometry x="81" y="65" width="40" height="30" as="geometry"/>
                </mxCell>
                <mxCell id="WnE581g1JwL_uMXCxE2F-20" value="0" style="text;html=1;strokeColor=none;fillColor=none;align=center;verticalAlign=middle;whiteSpace=wrap;rounded=0;shadow=1;sketch=0;fillStyle=auto;fontFamily=Source Code Pro;fontSource=https%3A%2F%2Ffonts.googleapis.com%2Fcss%3Ffamily%3DSource%2BCode%2BPro;fontSize=12;movable=0;resizable=0;rotatable=0;deletable=0;editable=0;connectable=0;" parent="1" vertex="1">
                    <mxGeometry x="100" y="445" width="40" height="30" as="geometry"/>
                </mxCell>
                <mxCell id="WnE581g1JwL_uMXCxE2F-21" value="1" style="text;html=1;strokeColor=none;fillColor=none;align=center;verticalAlign=middle;whiteSpace=wrap;rounded=0;shadow=1;sketch=0;fillStyle=auto;fontFamily=Source Code Pro;fontSource=https%3A%2F%2Ffonts.googleapis.com%2Fcss%3Ffamily%3DSource%2BCode%2BPro;fontSize=12;movable=0;resizable=0;rotatable=0;deletable=0;editable=0;connectable=0;" parent="1" vertex="1">
                    <mxGeometry x="140" y="445" width="40" height="30" as="geometry"/>
                </mxCell>
                <mxCell id="WnE581g1JwL_uMXCxE2F-22" value="2" style="text;html=1;strokeColor=none;fillColor=none;align=center;verticalAlign=middle;whiteSpace=wrap;rounded=0;shadow=1;sketch=0;fillStyle=auto;fontFamily=Source Code Pro;fontSource=https%3A%2F%2Ffonts.googleapis.com%2Fcss%3Ffamily%3DSource%2BCode%2BPro;fontSize=12;movable=0;resizable=0;rotatable=0;deletable=0;editable=0;connectable=0;" parent="1" vertex="1">
                    <mxGeometry x="181" y="445" width="40" height="30" as="geometry"/>
                </mxCell>
                <mxCell id="WnE581g1JwL_uMXCxE2F-23" value="3" style="text;html=1;strokeColor=none;fillColor=none;align=center;verticalAlign=middle;whiteSpace=wrap;rounded=0;shadow=1;sketch=0;fillStyle=auto;fontFamily=Source Code Pro;fontSource=https%3A%2F%2Ffonts.googleapis.com%2Fcss%3Ffamily%3DSource%2BCode%2BPro;fontSize=12;movable=0;resizable=0;rotatable=0;deletable=0;editable=0;connectable=0;" parent="1" vertex="1">
                    <mxGeometry x="221" y="445" width="40" height="30" as="geometry"/>
                </mxCell>
                <mxCell id="WnE581g1JwL_uMXCxE2F-24" value="4" style="text;html=1;strokeColor=none;fillColor=none;align=center;verticalAlign=middle;whiteSpace=wrap;rounded=0;shadow=1;sketch=0;fillStyle=auto;fontFamily=Source Code Pro;fontSource=https%3A%2F%2Ffonts.googleapis.com%2Fcss%3Ffamily%3DSource%2BCode%2BPro;fontSize=12;movable=0;resizable=0;rotatable=0;deletable=0;editable=0;connectable=0;" parent="1" vertex="1">
                    <mxGeometry x="261" y="445" width="40" height="30" as="geometry"/>
                </mxCell>
                <mxCell id="WnE581g1JwL_uMXCxE2F-25" value="5" style="text;html=1;strokeColor=none;fillColor=none;align=center;verticalAlign=middle;whiteSpace=wrap;rounded=0;shadow=1;sketch=0;fillStyle=auto;fontFamily=Source Code Pro;fontSource=https%3A%2F%2Ffonts.googleapis.com%2Fcss%3Ffamily%3DSource%2BCode%2BPro;fontSize=12;movable=0;resizable=0;rotatable=0;deletable=0;editable=0;connectable=0;" parent="1" vertex="1">
                    <mxGeometry x="301" y="445" width="40" height="30" as="geometry"/>
                </mxCell>
                <mxCell id="WnE581g1JwL_uMXCxE2F-26" value="6" style="text;html=1;strokeColor=none;fillColor=none;align=center;verticalAlign=middle;whiteSpace=wrap;rounded=0;shadow=1;sketch=0;fillStyle=auto;fontFamily=Source Code Pro;fontSource=https%3A%2F%2Ffonts.googleapis.com%2Fcss%3Ffamily%3DSource%2BCode%2BPro;fontSize=12;movable=0;resizable=0;rotatable=0;deletable=0;editable=0;connectable=0;" parent="1" vertex="1">
                    <mxGeometry x="341" y="445" width="40" height="30" as="geometry"/>
                </mxCell>
                <mxCell id="WnE581g1JwL_uMXCxE2F-27" value="7" style="text;html=1;strokeColor=none;fillColor=none;align=center;verticalAlign=middle;whiteSpace=wrap;rounded=0;shadow=1;sketch=0;fillStyle=auto;fontFamily=Source Code Pro;fontSource=https%3A%2F%2Ffonts.googleapis.com%2Fcss%3Ffamily%3DSource%2BCode%2BPro;fontSize=12;movable=0;resizable=0;rotatable=0;deletable=0;editable=0;connectable=0;" parent="1" vertex="1">
                    <mxGeometry x="381" y="445" width="40" height="30" as="geometry"/>
                </mxCell>
                <mxCell id="WnE581g1JwL_uMXCxE2F-28" value="8" style="text;html=1;strokeColor=none;fillColor=none;align=center;verticalAlign=middle;whiteSpace=wrap;rounded=0;shadow=1;sketch=0;fillStyle=auto;fontFamily=Source Code Pro;fontSource=https%3A%2F%2Ffonts.googleapis.com%2Fcss%3Ffamily%3DSource%2BCode%2BPro;fontSize=12;movable=0;resizable=0;rotatable=0;deletable=0;editable=0;connectable=0;" parent="1" vertex="1">
                    <mxGeometry x="421" y="445" width="40" height="30" as="geometry"/>
                </mxCell>
                <mxCell id="WnE581g1JwL_uMXCxE2F-29" value="9" style="text;html=1;strokeColor=none;fillColor=none;align=center;verticalAlign=middle;whiteSpace=wrap;rounded=0;shadow=1;sketch=0;fillStyle=auto;fontFamily=Source Code Pro;fontSource=https%3A%2F%2Ffonts.googleapis.com%2Fcss%3Ffamily%3DSource%2BCode%2BPro;fontSize=12;movable=0;resizable=0;rotatable=0;deletable=0;editable=0;connectable=0;" parent="1" vertex="1">
                    <mxGeometry x="461" y="445" width="40" height="30" as="geometry"/>
                </mxCell>
                <mxCell id="WnE581g1JwL_uMXCxE2F-31" value="" style="shape=cross;whiteSpace=wrap;html=1;shadow=0;sketch=0;fillStyle=auto;strokeColor=default;fontFamily=Source Code Pro;fontSource=https%3A%2F%2Ffonts.googleapis.com%2Fcss%3Ffamily%3DSource%2BCode%2BPro;fontSize=12;fillColor=#0F0F0F;rotation=45;movable=1;resizable=1;rotatable=1;deletable=1;editable=1;connectable=1;" parent="1" vertex="1">
                    <mxGeometry x="190" y="147.57" width="20" height="20" as="geometry"/>
                </mxCell>
                <mxCell id="WnE581g1JwL_uMXCxE2F-32" value="" style="shape=cross;whiteSpace=wrap;html=1;shadow=0;sketch=0;fillStyle=auto;strokeColor=default;fontFamily=Source Code Pro;fontSource=https%3A%2F%2Ffonts.googleapis.com%2Fcss%3Ffamily%3DSource%2BCode%2BPro;fontSize=12;fillColor=#0F0F0F;rotation=45;movable=1;resizable=1;rotatable=1;deletable=1;editable=1;connectable=1;" parent="1" vertex="1">
                    <mxGeometry x="310" y="147.57" width="20" height="20" as="geometry"/>
                </mxCell>
                <mxCell id="WnE581g1JwL_uMXCxE2F-33" value="" style="shape=cross;whiteSpace=wrap;html=1;shadow=0;sketch=0;fillStyle=auto;strokeColor=default;fontFamily=Source Code Pro;fontSource=https%3A%2F%2Ffonts.googleapis.com%2Fcss%3Ffamily%3DSource%2BCode%2BPro;fontSize=12;fillColor=#0F0F0F;rotation=45;movable=1;resizable=1;rotatable=1;deletable=1;editable=1;connectable=1;" parent="1" vertex="1">
                    <mxGeometry x="190" y="267.57" width="20" height="20" as="geometry"/>
                </mxCell>
                <mxCell id="WnE581g1JwL_uMXCxE2F-34" value="" style="shape=cross;whiteSpace=wrap;html=1;shadow=0;sketch=0;fillStyle=auto;strokeColor=default;fontFamily=Source Code Pro;fontSource=https%3A%2F%2Ffonts.googleapis.com%2Fcss%3Ffamily%3DSource%2BCode%2BPro;fontSize=12;fillColor=#0F0F0F;rotation=45;movable=1;resizable=1;rotatable=1;deletable=1;editable=1;connectable=1;" parent="1" vertex="1">
                    <mxGeometry x="310" y="267.57" width="20" height="20" as="geometry"/>
                </mxCell>
                <mxCell id="WnE581g1JwL_uMXCxE2F-35" value="" style="shape=cross;whiteSpace=wrap;html=1;shadow=0;sketch=0;fillStyle=auto;strokeColor=default;fontFamily=Source Code Pro;fontSource=https%3A%2F%2Ffonts.googleapis.com%2Fcss%3Ffamily%3DSource%2BCode%2BPro;fontSize=12;fillColor=#0F0F0F;rotation=45;movable=1;resizable=1;rotatable=1;deletable=1;editable=1;connectable=1;" parent="1" vertex="1">
                    <mxGeometry x="230" y="197.57" width="20" height="20" as="geometry"/>
                </mxCell>
                <mxCell id="WnE581g1JwL_uMXCxE2F-36" value="" style="shape=cross;whiteSpace=wrap;html=1;shadow=0;sketch=0;fillStyle=auto;strokeColor=default;fontFamily=Source Code Pro;fontSource=https%3A%2F%2Ffonts.googleapis.com%2Fcss%3Ffamily%3DSource%2BCode%2BPro;fontSize=12;fillColor=#0F0F0F;rotation=45;movable=1;resizable=1;rotatable=1;deletable=1;editable=1;connectable=1;" parent="1" vertex="1">
                    <mxGeometry x="350" y="197.57" width="20" height="20" as="geometry"/>
                </mxCell>
                <mxCell id="WnE581g1JwL_uMXCxE2F-37" value="" style="shape=cross;whiteSpace=wrap;html=1;shadow=0;sketch=0;fillStyle=auto;strokeColor=default;fontFamily=Source Code Pro;fontSource=https%3A%2F%2Ffonts.googleapis.com%2Fcss%3Ffamily%3DSource%2BCode%2BPro;fontSize=12;fillColor=#0F0F0F;rotation=45;movable=1;resizable=1;rotatable=1;deletable=1;editable=1;connectable=1;" parent="1" vertex="1">
                    <mxGeometry x="230" y="317.57" width="20" height="20" as="geometry"/>
                </mxCell>
                <mxCell id="WnE581g1JwL_uMXCxE2F-38" value="" style="shape=cross;whiteSpace=wrap;html=1;shadow=0;sketch=0;fillStyle=auto;strokeColor=default;fontFamily=Source Code Pro;fontSource=https%3A%2F%2Ffonts.googleapis.com%2Fcss%3Ffamily%3DSource%2BCode%2BPro;fontSize=12;fillColor=#0F0F0F;rotation=45;movable=1;resizable=1;rotatable=1;deletable=1;editable=1;connectable=1;" parent="1" vertex="1">
                    <mxGeometry x="350" y="317.57" width="20" height="20" as="geometry"/>
                </mxCell>
                <mxCell id="WnE581g1JwL_uMXCxE2F-40" value="" style="endArrow=none;dashed=1;html=1;fontFamily=Source Code Pro;fontSource=https%3A%2F%2Ffonts.googleapis.com%2Fcss%3Ffamily%3DSource%2BCode%2BPro;fontSize=12;jumpStyle=none;movable=1;resizable=1;rotatable=1;deletable=1;editable=1;connectable=1;" parent="1" edge="1">
                    <mxGeometry width="50" height="50" relative="1" as="geometry">
                        <mxPoint x="200" y="280" as="sourcePoint"/>
                        <mxPoint x="200" y="160" as="targetPoint"/>
                    </mxGeometry>
                </mxCell>
                <mxCell id="WnE581g1JwL_uMXCxE2F-41" value="" style="endArrow=none;dashed=1;html=1;fontFamily=Source Code Pro;fontSource=https%3A%2F%2Ffonts.googleapis.com%2Fcss%3Ffamily%3DSource%2BCode%2BPro;fontSize=12;jumpStyle=none;movable=1;resizable=1;rotatable=1;deletable=1;editable=1;connectable=1;" parent="1" edge="1">
                    <mxGeometry width="50" height="50" relative="1" as="geometry">
                        <mxPoint x="320" y="280" as="sourcePoint"/>
                        <mxPoint x="320" y="160" as="targetPoint"/>
                    </mxGeometry>
                </mxCell>
                <mxCell id="WnE581g1JwL_uMXCxE2F-42" value="" style="endArrow=none;dashed=1;html=1;fontFamily=Source Code Pro;fontSource=https%3A%2F%2Ffonts.googleapis.com%2Fcss%3Ffamily%3DSource%2BCode%2BPro;fontSize=12;jumpStyle=none;movable=1;resizable=1;rotatable=1;deletable=1;editable=1;connectable=1;" parent="1" edge="1">
                    <mxGeometry width="50" height="50" relative="1" as="geometry">
                        <mxPoint x="240" y="330" as="sourcePoint"/>
                        <mxPoint x="240" y="210" as="targetPoint"/>
                    </mxGeometry>
                </mxCell>
                <mxCell id="WnE581g1JwL_uMXCxE2F-43" value="" style="endArrow=none;dashed=1;html=1;fontFamily=Source Code Pro;fontSource=https%3A%2F%2Ffonts.googleapis.com%2Fcss%3Ffamily%3DSource%2BCode%2BPro;fontSize=12;jumpStyle=none;movable=1;resizable=1;rotatable=1;deletable=1;editable=1;connectable=1;" parent="1" edge="1">
                    <mxGeometry width="50" height="50" relative="1" as="geometry">
                        <mxPoint x="360" y="330" as="sourcePoint"/>
                        <mxPoint x="360" y="210" as="targetPoint"/>
                    </mxGeometry>
                </mxCell>
                <mxCell id="WnE581g1JwL_uMXCxE2F-44" value="" style="endArrow=none;dashed=1;html=1;fontFamily=Source Code Pro;fontSource=https%3A%2F%2Ffonts.googleapis.com%2Fcss%3Ffamily%3DSource%2BCode%2BPro;fontSize=12;jumpStyle=none;movable=1;resizable=1;rotatable=1;deletable=1;editable=1;connectable=1;" parent="1" edge="1">
                    <mxGeometry width="50" height="50" relative="1" as="geometry">
                        <mxPoint x="200" y="160" as="sourcePoint"/>
                        <mxPoint x="320" y="160" as="targetPoint"/>
                    </mxGeometry>
                </mxCell>
                <mxCell id="WnE581g1JwL_uMXCxE2F-45" value="" style="endArrow=none;dashed=1;html=1;fontFamily=Source Code Pro;fontSource=https%3A%2F%2Ffonts.googleapis.com%2Fcss%3Ffamily%3DSource%2BCode%2BPro;fontSize=12;jumpStyle=none;movable=1;resizable=1;rotatable=1;deletable=1;editable=1;connectable=1;" parent="1" edge="1">
                    <mxGeometry width="50" height="50" relative="1" as="geometry">
                        <mxPoint x="240" y="210" as="sourcePoint"/>
                        <mxPoint x="360" y="210" as="targetPoint"/>
                    </mxGeometry>
                </mxCell>
                <mxCell id="WnE581g1JwL_uMXCxE2F-46" value="" style="endArrow=none;dashed=1;html=1;fontFamily=Source Code Pro;fontSource=https%3A%2F%2Ffonts.googleapis.com%2Fcss%3Ffamily%3DSource%2BCode%2BPro;fontSize=12;jumpStyle=none;movable=1;resizable=1;rotatable=1;deletable=1;editable=1;connectable=1;" parent="1" edge="1">
                    <mxGeometry width="50" height="50" relative="1" as="geometry">
                        <mxPoint x="200" y="280" as="sourcePoint"/>
                        <mxPoint x="320" y="280" as="targetPoint"/>
                    </mxGeometry>
                </mxCell>
                <mxCell id="WnE581g1JwL_uMXCxE2F-47" value="" style="endArrow=none;dashed=1;html=1;fontFamily=Source Code Pro;fontSource=https%3A%2F%2Ffonts.googleapis.com%2Fcss%3Ffamily%3DSource%2BCode%2BPro;fontSize=12;jumpStyle=none;movable=1;resizable=1;rotatable=1;deletable=1;editable=1;connectable=1;" parent="1" edge="1">
                    <mxGeometry width="50" height="50" relative="1" as="geometry">
                        <mxPoint x="240" y="330" as="sourcePoint"/>
                        <mxPoint x="360" y="330" as="targetPoint"/>
                    </mxGeometry>
                </mxCell>
                <mxCell id="WnE581g1JwL_uMXCxE2F-50" value="" style="endArrow=none;dashed=1;html=1;fontFamily=Source Code Pro;fontSource=https%3A%2F%2Ffonts.googleapis.com%2Fcss%3Ffamily%3DSource%2BCode%2BPro;fontSize=12;jumpStyle=none;movable=1;resizable=1;rotatable=1;deletable=1;editable=1;connectable=1;" parent="1" edge="1">
                    <mxGeometry width="50" height="50" relative="1" as="geometry">
                        <mxPoint x="200" y="160" as="sourcePoint"/>
                        <mxPoint x="240" y="210" as="targetPoint"/>
                    </mxGeometry>
                </mxCell>
                <mxCell id="WnE581g1JwL_uMXCxE2F-51" value="" style="endArrow=none;dashed=1;html=1;fontFamily=Source Code Pro;fontSource=https%3A%2F%2Ffonts.googleapis.com%2Fcss%3Ffamily%3DSource%2BCode%2BPro;fontSize=12;jumpStyle=none;movable=1;resizable=1;rotatable=1;deletable=1;editable=1;connectable=1;" parent="1" edge="1">
                    <mxGeometry width="50" height="50" relative="1" as="geometry">
                        <mxPoint x="320" y="160" as="sourcePoint"/>
                        <mxPoint x="360" y="210" as="targetPoint"/>
                    </mxGeometry>
                </mxCell>
                <mxCell id="WnE581g1JwL_uMXCxE2F-52" value="" style="endArrow=none;dashed=1;html=1;fontFamily=Source Code Pro;fontSource=https%3A%2F%2Ffonts.googleapis.com%2Fcss%3Ffamily%3DSource%2BCode%2BPro;fontSize=12;jumpStyle=none;movable=1;resizable=1;rotatable=1;deletable=1;editable=1;connectable=1;" parent="1" edge="1">
                    <mxGeometry width="50" height="50" relative="1" as="geometry">
                        <mxPoint x="200" y="280" as="sourcePoint"/>
                        <mxPoint x="240" y="330" as="targetPoint"/>
                    </mxGeometry>
                </mxCell>
                <mxCell id="WnE581g1JwL_uMXCxE2F-53" value="" style="endArrow=none;dashed=1;html=1;fontFamily=Source Code Pro;fontSource=https%3A%2F%2Ffonts.googleapis.com%2Fcss%3Ffamily%3DSource%2BCode%2BPro;fontSize=12;jumpStyle=none;movable=1;resizable=1;rotatable=1;deletable=1;editable=1;connectable=1;" parent="1" edge="1">
                    <mxGeometry width="50" height="50" relative="1" as="geometry">
                        <mxPoint x="320" y="280" as="sourcePoint"/>
                        <mxPoint x="360" y="330" as="targetPoint"/>
                    </mxGeometry>
                </mxCell>
                <mxCell id="JPxzCUJ1mYCSLb_rxp_Q-1" value="3, 3&lt;br&gt;6, 3&lt;br&gt;6, 6&lt;br&gt;3, 6&lt;br&gt;..." style="text;html=1;strokeColor=none;fillColor=none;align=center;verticalAlign=middle;whiteSpace=wrap;rounded=0;shadow=0;sketch=0;fillStyle=auto;fontFamily=Source Code Pro;fontSource=https%3A%2F%2Ffonts.googleapis.com%2Fcss%3Ffamily%3DSource%2BCode%2BPro;fontSize=12;" parent="1" vertex="1">
                    <mxGeometry x="600" y="117.57" width="120" height="322.43" as="geometry"/>
                </mxCell>
            </root>
        </mxGraphModel>
    </diagram>
</mxfile>